<svg width="707.225px" height="191.6150146484375px" xmlns="http://www.w3.org/2000/svg" viewBox="-103.61250000000001 -20.807507324218747 707.225 191.6150146484375" style="background: none;" preserveAspectRatio="xMidYMid"><defs><filter id="editing-hole" x="-100%" y="-100%" width="300%" height="300%"><feFlood flood-color="#ffffff" result="black"></feFlood><feMorphology operator="dilate" radius="2" in="SourceGraphic" result="erode"></feMorphology><feGaussianBlur in="erode" stdDeviation="4" result="blur"></feGaussianBlur><feOffset in="blur" dx="2" dy="2" result="offset"></feOffset><feComposite operator="atop" in="offset" in2="black" result="merge"></feComposite><feComposite operator="in" in="merge" in2="SourceGraphic" result="inner-shadow"></feComposite></filter></defs><g filter="url(#editing-hole)"><g transform="translate(-5.1999969482421875, 111.19999694824219)"><path d="M17.30 0L9 0L9-65.60L27.70-65.60L27.70-65.60Q33.20-65.60 37.75-64.60L37.75-64.60L37.75-64.60Q42.30-63.60 45.50-61.35L45.50-61.35L45.50-61.35Q48.70-59.10 50.50-55.40L50.50-55.40L50.50-55.40Q52.30-51.70 52.30-46.30L52.30-46.30L52.30-46.30Q52.30-41.10 50.55-37.30L50.55-37.30L50.55-37.30Q48.80-33.50 45.60-31L45.60-31L45.60-31Q42.40-28.50 37.95-27.25L37.95-27.25L37.95-27.25Q33.50-26 28.10-26L28.10-26L17.30-26L17.30 0ZM17.30-58.90L17.30-32.80L27.10-32.80L27.10-32.80Q35.70-32.80 39.85-36.05L39.85-36.05L39.85-36.05Q44-39.30 44-46.30L44-46.30L44-46.30Q44-53.40 39.65-56.15L39.65-56.15L39.65-56.15Q35.30-58.90 26.70-58.90L26.70-58.90L17.30-58.90ZM73 0L64.80 0L64.80-71.20L73-71.20L73-51.80L72.70-41.80L72.70-41.80Q76.20-45.10 80-47.45L80-47.45L80-47.45Q83.80-49.80 88.90-49.80L88.90-49.80L88.90-49.80Q96.60-49.80 100.15-45L100.15-45L100.15-45Q103.70-40.20 103.70-30.80L103.70-30.80L103.70 0L95.50 0L95.50-29.70L95.50-29.70Q95.50-36.60 93.30-39.65L93.30-39.65L93.30-39.65Q91.10-42.70 86.30-42.70L86.30-42.70L86.30-42.70Q82.50-42.70 79.60-40.80L79.60-40.80L79.60-40.80Q76.70-38.90 73-35.20L73-35.20L73 0ZM130.40 1.20L130.40 1.20L130.40 1.20Q124.30 1.20 120.25-2.40L120.25-2.40L120.25-2.40Q116.20-6 116.20-12.60L116.20-12.60L116.20-12.60Q116.20-20.60 123.30-24.85L123.30-24.85L123.30-24.85Q130.40-29.10 146-30.80L146-30.80L146-30.80Q146-33.10 145.55-35.30L145.55-35.30L145.55-35.30Q145.10-37.50 144-39.20L144-39.20L144-39.20Q142.90-40.90 140.95-41.95L140.95-41.95L140.95-41.95Q139-43 136-43L136-43L136-43Q131.80-43 128.10-41.40L128.10-41.40L128.10-41.40Q124.40-39.80 121.50-37.80L121.50-37.80L118.30-43.50L118.30-43.50Q121.70-45.70 126.60-47.75L126.60-47.75L126.60-47.75Q131.50-49.80 137.40-49.80L137.40-49.80L137.40-49.80Q146.30-49.80 150.30-44.35L150.30-44.35L150.30-44.35Q154.30-38.90 154.30-29.80L154.30-29.80L154.30 0L147.50 0L146.80-5.80L146.50-5.80L146.50-5.80Q143-2.90 139-0.85L139-0.85L139-0.85Q135 1.20 130.40 1.20ZM132.80-5.40L132.80-5.40L132.80-5.40Q136.30-5.40 139.40-7.05L139.40-7.05L139.40-7.05Q142.50-8.70 146-11.90L146-11.90L146-25.40L146-25.40Q139.90-24.60 135.75-23.50L135.75-23.50L135.75-23.50Q131.60-22.40 129.05-20.90L129.05-20.90L129.05-20.90Q126.50-19.40 125.35-17.45L125.35-17.45L125.35-17.45Q124.20-15.50 124.20-13.20L124.20-13.20L124.20-13.20Q124.20-9 126.70-7.20L126.70-7.20L126.70-7.20Q129.20-5.40 132.80-5.40ZM177.80 0L169.60 0L169.60-48.60L176.40-48.60L177.10-39.80L177.40-39.80L177.40-39.80Q179.90-44.40 183.45-47.10L183.45-47.10L183.45-47.10Q187-49.80 191.20-49.80L191.20-49.80L191.20-49.80Q194.10-49.80 196.40-48.80L196.40-48.80L194.80-41.60L194.80-41.60Q193.60-42 192.60-42.20L192.60-42.20L192.60-42.20Q191.60-42.40 190.10-42.40L190.10-42.40L190.10-42.40Q187-42.40 183.65-39.90L183.65-39.90L183.65-39.90Q180.30-37.40 177.80-31.20L177.80-31.20L177.80 0ZM212.50 0L204.30 0L204.30-48.60L211.10-48.60L211.80-41.60L212.10-41.60L212.10-41.60Q215.30-45.10 219.05-47.45L219.05-47.45L219.05-47.45Q222.80-49.80 227.20-49.80L227.20-49.80L227.20-49.80Q232.80-49.80 235.95-47.35L235.95-47.35L235.95-47.35Q239.10-44.90 240.60-40.50L240.60-40.50L240.60-40.50Q244.40-44.70 248.25-47.25L248.25-47.25L248.25-47.25Q252.10-49.80 256.60-49.80L256.60-49.80L256.60-49.80Q264.10-49.80 267.75-45L267.75-45L267.75-45Q271.40-40.20 271.40-30.80L271.40-30.80L271.40 0L263.20 0L263.20-29.70L263.20-29.70Q263.20-36.60 261-39.65L261-39.65L261-39.65Q258.80-42.70 254.20-42.70L254.20-42.70L254.20-42.70Q248.70-42.70 242.00-35.20L242.00-35.20L242.00 0L233.80 0L233.80-29.70L233.80-29.70Q233.80-36.60 231.60-39.65L231.60-39.65L231.60-39.65Q229.40-42.70 224.70-42.70L224.70-42.70L224.70-42.70Q219.20-42.70 212.50-35.20L212.50-35.20L212.50 0ZM298.40 1.20L298.40 1.20L298.40 1.20Q292.30 1.20 288.25-2.40L288.25-2.40L288.25-2.40Q284.20-6 284.20-12.60L284.20-12.60L284.20-12.60Q284.20-20.60 291.30-24.85L291.30-24.85L291.30-24.85Q298.40-29.10 314-30.80L314-30.80L314-30.80Q314-33.10 313.55-35.30L313.55-35.30L313.55-35.30Q313.10-37.50 312-39.20L312-39.20L312-39.20Q310.90-40.90 308.95-41.95L308.95-41.95L308.95-41.95Q307-43 304-43L304-43L304-43Q299.80-43 296.10-41.40L296.10-41.40L296.10-41.40Q292.40-39.80 289.50-37.80L289.50-37.80L286.30-43.50L286.30-43.50Q289.70-45.70 294.60-47.75L294.60-47.75L294.60-47.75Q299.50-49.80 305.40-49.80L305.40-49.80L305.40-49.80Q314.30-49.80 318.30-44.35L318.30-44.35L318.30-44.35Q322.30-38.90 322.30-29.80L322.30-29.80L322.30 0L315.50 0L314.80-5.80L314.50-5.80L314.50-5.80Q311-2.90 307-0.85L307-0.85L307-0.85Q303 1.20 298.40 1.20ZM300.80-5.40L300.80-5.40L300.80-5.40Q304.30-5.40 307.40-7.05L307.40-7.05L307.40-7.05Q310.50-8.70 314-11.90L314-11.90L314-25.40L314-25.40Q307.90-24.60 303.75-23.50L303.75-23.50L303.75-23.50Q299.60-22.40 297.05-20.90L297.05-20.90L297.05-20.90Q294.50-19.40 293.35-17.45L293.35-17.45L293.35-17.45Q292.20-15.50 292.20-13.20L292.20-13.20L292.20-13.20Q292.20-9 294.70-7.20L294.70-7.20L294.70-7.20Q297.20-5.40 300.80-5.40ZM379.10 0L333.90 0L333.90-5L368.40-58.60L337-58.60L337-65.60L378.80-65.60L378.80-60.70L344.20-7.10L379.10-7.10L379.10 0ZM409.10 1.20L409.10 1.20L409.10 1.20Q404.20 1.20 399.95-0.55L399.95-0.55L399.95-0.55Q395.70-2.30 392.55-5.55L392.55-5.55L392.55-5.55Q389.40-8.80 387.60-13.50L387.60-13.50L387.60-13.50Q385.80-18.20 385.80-24.20L385.80-24.20L385.80-24.20Q385.80-30.20 387.65-34.95L387.65-34.95L387.65-34.95Q389.50-39.70 392.55-43L392.55-43L392.55-43Q395.60-46.30 399.50-48.05L399.50-48.05L399.50-48.05Q403.40-49.80 407.60-49.80L407.60-49.80L407.60-49.80Q412.20-49.80 415.85-48.20L415.85-48.20L415.85-48.20Q419.50-46.60 421.95-43.60L421.95-43.60L421.95-43.60Q424.40-40.60 425.70-36.40L425.70-36.40L425.70-36.40Q427.00-32.20 427.00-27L427.00-27L427.00-27Q427.00-25.70 426.95-24.45L426.95-24.45L426.95-24.45Q426.90-23.20 426.70-22.30L426.70-22.30L393.90-22.30L393.90-22.30Q394.40-14.50 398.75-9.95L398.75-9.95L398.75-9.95Q403.10-5.40 410.10-5.40L410.10-5.40L410.10-5.40Q413.60-5.40 416.55-6.45L416.55-6.45L416.55-6.45Q419.50-7.50 422.20-9.20L422.20-9.20L425.10-3.80L425.10-3.80Q421.90-1.80 418.00-0.30L418.00-0.30L418.00-0.30Q414.10 1.20 409.10 1.20ZM393.80-28.20L393.80-28.20L419.80-28.20L419.80-28.20Q419.80-35.60 416.65-39.45L416.65-39.45L416.65-39.45Q413.50-43.30 407.80-43.30L407.80-43.30L407.80-43.30Q405.20-43.30 402.85-42.30L402.85-42.30L402.85-42.30Q400.50-41.30 398.60-39.35L398.60-39.35L398.60-39.35Q396.70-37.40 395.45-34.60L395.45-34.60L395.45-34.60Q394.20-31.80 393.80-28.20ZM448.80 1.20L448.80 1.20L448.80 1.20Q442.70 1.20 438.65-2.40L438.65-2.40L438.65-2.40Q434.60-6 434.60-12.60L434.60-12.60L434.60-12.60Q434.60-20.60 441.70-24.85L441.70-24.85L441.70-24.85Q448.80-29.10 464.40-30.80L464.40-30.80L464.40-30.80Q464.40-33.10 463.95-35.30L463.95-35.30L463.95-35.30Q463.50-37.50 462.40-39.20L462.40-39.20L462.40-39.20Q461.30-40.90 459.35-41.95L459.35-41.95L459.35-41.95Q457.40-43 454.40-43L454.40-43L454.40-43Q450.20-43 446.50-41.40L446.50-41.40L446.50-41.40Q442.80-39.80 439.90-37.80L439.90-37.80L436.70-43.50L436.70-43.50Q440.10-45.70 445-47.75L445-47.75L445-47.75Q449.90-49.80 455.80-49.80L455.80-49.80L455.80-49.80Q464.70-49.80 468.70-44.35L468.70-44.35L468.70-44.35Q472.70-38.90 472.70-29.80L472.70-29.80L472.70 0L465.90 0L465.20-5.80L464.90-5.80L464.90-5.80Q461.40-2.90 457.40-0.85L457.40-0.85L457.40-0.85Q453.40 1.20 448.80 1.20ZM451.20-5.40L451.20-5.40L451.20-5.40Q454.70-5.40 457.80-7.05L457.80-7.05L457.80-7.05Q460.90-8.70 464.40-11.90L464.40-11.90L464.40-25.40L464.40-25.40Q458.30-24.60 454.15-23.50L454.15-23.50L454.15-23.50Q450-22.40 447.45-20.90L447.45-20.90L447.45-20.90Q444.90-19.40 443.75-17.45L443.75-17.45L443.75-17.45Q442.60-15.50 442.60-13.20L442.60-13.20L442.60-13.20Q442.60-9 445.10-7.20L445.10-7.20L445.10-7.20Q447.60-5.40 451.20-5.40ZM496.70 1.20L496.70 1.20L496.70 1.20Q492.00 1.20 490.00-1.60L490.00-1.60L490.00-1.60Q488.00-4.40 488.00-9.80L488.00-9.80L488.00-71.20L496.20-71.20L496.20-9.20L496.20-9.20Q496.20-7.20 496.90-6.40L496.90-6.40L496.90-6.40Q497.60-5.60 498.50-5.60L498.50-5.60L498.50-5.60Q498.90-5.60 499.25-5.60L499.25-5.60L499.25-5.60Q499.60-5.60 500.30-5.80L500.30-5.80L501.40 0.40L501.40 0.40Q500.60 0.80 499.50 1L499.50 1L499.50 1Q498.40 1.20 496.70 1.20Z" fill="#ffffff"></path></g></g><style>text {
  font-size: 64px;
  font-family: Arial Black;
  dominant-baseline: central;
  text-anchor: middle;
}</style></svg>