<svg width="432.33502197265625px" height="123.23251953124999px" xmlns="http://www.w3.org/2000/svg" viewBox="33.832489013671875 13.383740234375004 432.33502197265625 123.23251953124999" style="background: rgba(0, 0, 0, 0);" preserveAspectRatio="xMidYMid"><defs><filter id="editing-hole" x="-100%" y="-100%" width="300%" height="300%"><feFlood flood-color="#ffffff" result="black"></feFlood><feMorphology operator="dilate" radius="2" in="SourceGraphic" result="erode"></feMorphology><feGaussianBlur in="erode" stdDeviation="4" result="blur"></feGaussianBlur><feOffset in="blur" dx="2" dy="2" result="offset"></feOffset><feComposite operator="atop" in="offset" in2="black" result="merge"></feComposite><feComposite operator="in" in="merge" in2="SourceGraphic" result="inner-shadow"></feComposite></filter></defs><g filter="url(#editing-hole)"><g transform="translate(96.87999868392944, 96.72000122070312)"><path d="M10.38 0L5.40 0L5.40-39.36L16.62-39.36L16.62-39.36Q19.92-39.36 22.65-38.76L22.65-38.76L22.65-38.76Q25.38-38.16 27.30-36.81L27.30-36.81L27.30-36.81Q29.22-35.46 30.30-33.24L30.30-33.24L30.30-33.24Q31.38-31.02 31.38-27.78L31.38-27.78L31.38-27.78Q31.38-24.66 30.33-22.38L30.33-22.38L30.33-22.38Q29.28-20.10 27.36-18.60L27.36-18.60L27.36-18.60Q25.44-17.10 22.77-16.35L22.77-16.35L22.77-16.35Q20.10-15.60 16.86-15.60L16.86-15.60L10.38-15.60L10.38 0ZM10.38-35.34L10.38-19.68L16.26-19.68L16.26-19.68Q21.42-19.68 23.91-21.63L23.91-21.63L23.91-21.63Q26.40-23.58 26.40-27.78L26.40-27.78L26.40-27.78Q26.40-32.04 23.79-33.69L23.79-33.69L23.79-33.69Q21.18-35.34 16.02-35.34L16.02-35.34L10.38-35.34ZM43.80 0L38.88 0L38.88-42.72L43.80-42.72L43.80-31.08L43.62-25.08L43.62-25.08Q45.72-27.06 48-28.47L48-28.47L48-28.47Q50.28-29.88 53.34-29.88L53.34-29.88L53.34-29.88Q57.96-29.88 60.09-27L60.09-27L60.09-27Q62.22-24.12 62.22-18.48L62.22-18.48L62.22 0L57.30 0L57.30-17.82L57.30-17.82Q57.30-21.96 55.98-23.79L55.98-23.79L55.98-23.79Q54.66-25.62 51.78-25.62L51.78-25.62L51.78-25.62Q49.50-25.62 47.76-24.48L47.76-24.48L47.76-24.48Q46.02-23.34 43.80-21.12L43.80-21.12L43.80 0ZM78.24 0.72L78.24 0.72L78.24 0.72Q74.58 0.72 72.15-1.44L72.15-1.44L72.15-1.44Q69.72-3.60 69.72-7.56L69.72-7.56L69.72-7.56Q69.72-12.36 73.98-14.91L73.98-14.91L73.98-14.91Q78.24-17.46 87.60-18.48L87.60-18.48L87.60-18.48Q87.60-19.86 87.33-21.18L87.33-21.18L87.33-21.18Q87.06-22.50 86.40-23.52L86.40-23.52L86.40-23.52Q85.74-24.54 84.57-25.17L84.57-25.17L84.57-25.17Q83.40-25.80 81.60-25.80L81.60-25.80L81.60-25.80Q79.08-25.80 76.86-24.84L76.86-24.84L76.86-24.84Q74.64-23.88 72.90-22.68L72.90-22.68L70.98-26.10L70.98-26.10Q73.02-27.42 75.96-28.65L75.96-28.65L75.96-28.65Q78.90-29.88 82.44-29.88L82.44-29.88L82.44-29.88Q87.78-29.88 90.18-26.61L90.18-26.61L90.18-26.61Q92.58-23.34 92.58-17.88L92.58-17.88L92.58 0L88.50 0L88.08-3.48L87.90-3.48L87.90-3.48Q85.80-1.74 83.40-0.51L83.40-0.51L83.40-0.51Q81 0.72 78.24 0.72ZM79.68-3.24L79.68-3.24L79.68-3.24Q81.78-3.24 83.64-4.23L83.64-4.23L83.64-4.23Q85.50-5.22 87.60-7.14L87.60-7.14L87.60-15.24L87.60-15.24Q83.94-14.76 81.45-14.10L81.45-14.10L81.45-14.10Q78.96-13.44 77.43-12.54L77.43-12.54L77.43-12.54Q75.90-11.64 75.21-10.47L75.21-10.47L75.21-10.47Q74.52-9.30 74.52-7.92L74.52-7.92L74.52-7.92Q74.52-5.40 76.02-4.32L76.02-4.32L76.02-4.32Q77.52-3.24 79.68-3.24ZM106.68 0L101.76 0L101.76-29.16L105.84-29.16L106.26-23.88L106.44-23.88L106.44-23.88Q107.94-26.64 110.07-28.26L110.07-28.26L110.07-28.26Q112.20-29.88 114.72-29.88L114.72-29.88L114.72-29.88Q116.46-29.88 117.84-29.28L117.84-29.28L116.88-24.96L116.88-24.96Q116.16-25.20 115.56-25.32L115.56-25.32L115.56-25.32Q114.96-25.44 114.06-25.44L114.06-25.44L114.06-25.44Q112.20-25.44 110.19-23.94L110.19-23.94L110.19-23.94Q108.18-22.44 106.68-18.72L106.68-18.72L106.68 0ZM127.50 0L122.58 0L122.58-29.16L126.66-29.16L127.08-24.96L127.26-24.96L127.26-24.96Q129.18-27.06 131.43-28.47L131.43-28.47L131.43-28.47Q133.68-29.88 136.32-29.88L136.32-29.88L136.32-29.88Q139.68-29.88 141.57-28.41L141.57-28.41L141.57-28.41Q143.46-26.94 144.36-24.30L144.36-24.30L144.36-24.30Q146.64-26.82 148.95-28.35L148.95-28.35L148.95-28.35Q151.26-29.88 153.96-29.88L153.96-29.88L153.96-29.88Q158.46-29.88 160.65-27L160.65-27L160.65-27Q162.84-24.12 162.84-18.48L162.84-18.48L162.84 0L157.92 0L157.92-17.82L157.92-17.82Q157.92-21.96 156.60-23.79L156.60-23.79L156.60-23.79Q155.28-25.62 152.52-25.62L152.52-25.62L152.52-25.62Q149.22-25.62 145.20-21.12L145.20-21.12L145.20 0L140.28 0L140.28-17.82L140.28-17.82Q140.28-21.96 138.96-23.79L138.96-23.79L138.96-23.79Q137.64-25.62 134.82-25.62L134.82-25.62L134.82-25.62Q131.52-25.62 127.50-21.12L127.50-21.12L127.50 0ZM179.04 0.72L179.04 0.72L179.04 0.72Q175.38 0.72 172.95-1.44L172.95-1.44L172.95-1.44Q170.52-3.60 170.52-7.56L170.52-7.56L170.52-7.56Q170.52-12.36 174.78-14.91L174.78-14.91L174.78-14.91Q179.04-17.46 188.40-18.48L188.40-18.48L188.40-18.48Q188.40-19.86 188.13-21.18L188.13-21.18L188.13-21.18Q187.86-22.50 187.20-23.52L187.20-23.52L187.20-23.52Q186.54-24.54 185.37-25.17L185.37-25.17L185.37-25.17Q184.20-25.80 182.40-25.80L182.40-25.80L182.40-25.80Q179.88-25.80 177.66-24.84L177.66-24.84L177.66-24.84Q175.44-23.88 173.70-22.68L173.70-22.68L171.78-26.10L171.78-26.10Q173.82-27.42 176.76-28.65L176.76-28.65L176.76-28.65Q179.70-29.88 183.24-29.88L183.24-29.88L183.24-29.88Q188.58-29.88 190.98-26.61L190.98-26.61L190.98-26.61Q193.38-23.34 193.38-17.88L193.38-17.88L193.38 0L189.30 0L188.88-3.48L188.70-3.48L188.70-3.48Q186.60-1.74 184.20-0.51L184.20-0.51L184.20-0.51Q181.80 0.72 179.04 0.72ZM180.48-3.24L180.48-3.24L180.48-3.24Q182.58-3.24 184.44-4.23L184.44-4.23L184.44-4.23Q186.30-5.22 188.40-7.14L188.40-7.14L188.40-15.24L188.40-15.24Q184.74-14.76 182.25-14.10L182.25-14.10L182.25-14.10Q179.76-13.44 178.23-12.54L178.23-12.54L178.23-12.54Q176.70-11.64 176.01-10.47L176.01-10.47L176.01-10.47Q175.32-9.30 175.32-7.92L175.32-7.92L175.32-7.92Q175.32-5.40 176.82-4.32L176.82-4.32L176.82-4.32Q178.32-3.24 180.48-3.24ZM227.46 0L200.34 0L200.34-3L221.04-35.16L202.20-35.16L202.20-39.36L227.28-39.36L227.28-36.42L206.52-4.26L227.46-4.26L227.46 0ZM245.46 0.72L245.46 0.72L245.46 0.72Q242.52 0.72 239.97-0.33L239.97-0.33L239.97-0.33Q237.42-1.38 235.53-3.33L235.53-3.33L235.53-3.33Q233.64-5.28 232.56-8.10L232.56-8.10L232.56-8.10Q231.48-10.92 231.48-14.52L231.48-14.52L231.48-14.52Q231.48-18.12 232.59-20.97L232.59-20.97L232.59-20.97Q233.70-23.82 235.53-25.80L235.53-25.80L235.53-25.80Q237.36-27.78 239.70-28.83L239.70-28.83L239.70-28.83Q242.04-29.88 244.56-29.88L244.56-29.88L244.56-29.88Q247.32-29.88 249.51-28.92L249.51-28.92L249.51-28.92Q251.70-27.96 253.17-26.16L253.17-26.16L253.17-26.16Q254.64-24.36 255.42-21.84L255.42-21.84L255.42-21.84Q256.20-19.32 256.20-16.20L256.20-16.20L256.20-16.20Q256.20-15.42 256.17-14.67L256.17-14.67L256.17-14.67Q256.14-13.92 256.02-13.38L256.02-13.38L236.34-13.38L236.34-13.38Q236.64-8.70 239.25-5.97L239.25-5.97L239.25-5.97Q241.86-3.24 246.06-3.24L246.06-3.24L246.06-3.24Q248.16-3.24 249.93-3.87L249.93-3.87L249.93-3.87Q251.70-4.50 253.32-5.52L253.32-5.52L255.06-2.28L255.06-2.28Q253.14-1.08 250.80-0.18L250.80-0.18L250.80-0.18Q248.46 0.72 245.46 0.72ZM236.28-16.92L236.28-16.92L251.88-16.92L251.88-16.92Q251.88-21.36 249.99-23.67L249.99-23.67L249.99-23.67Q248.10-25.98 244.68-25.98L244.68-25.98L244.68-25.98Q243.12-25.98 241.71-25.38L241.71-25.38L241.71-25.38Q240.30-24.78 239.16-23.61L239.16-23.61L239.16-23.61Q238.02-22.44 237.27-20.76L237.27-20.76L237.27-20.76Q236.52-19.08 236.28-16.92ZM269.28 0.72L269.28 0.72L269.28 0.72Q265.62 0.72 263.19-1.44L263.19-1.44L263.19-1.44Q260.76-3.60 260.76-7.56L260.76-7.56L260.76-7.56Q260.76-12.36 265.02-14.91L265.02-14.91L265.02-14.91Q269.28-17.46 278.64-18.48L278.64-18.48L278.64-18.48Q278.64-19.86 278.37-21.18L278.37-21.18L278.37-21.18Q278.10-22.50 277.44-23.52L277.44-23.52L277.44-23.52Q276.78-24.54 275.61-25.17L275.61-25.17L275.61-25.17Q274.44-25.80 272.64-25.80L272.64-25.80L272.64-25.80Q270.12-25.80 267.90-24.84L267.90-24.84L267.90-24.84Q265.68-23.88 263.94-22.68L263.94-22.68L262.02-26.10L262.02-26.10Q264.06-27.42 267.00-28.65L267.00-28.65L267.00-28.65Q269.94-29.88 273.48-29.88L273.48-29.88L273.48-29.88Q278.82-29.88 281.22-26.61L281.22-26.61L281.22-26.61Q283.62-23.34 283.62-17.88L283.62-17.88L283.62 0L279.54 0L279.12-3.48L278.94-3.48L278.94-3.48Q276.84-1.74 274.44-0.51L274.44-0.51L274.44-0.51Q272.04 0.72 269.28 0.72ZM270.72-3.24L270.72-3.24L270.72-3.24Q272.82-3.24 274.68-4.23L274.68-4.23L274.68-4.23Q276.54-5.22 278.64-7.14L278.64-7.14L278.64-15.24L278.64-15.24Q274.98-14.76 272.49-14.10L272.49-14.10L272.49-14.10Q270.00-13.44 268.47-12.54L268.47-12.54L268.47-12.54Q266.94-11.64 266.25-10.47L266.25-10.47L266.25-10.47Q265.56-9.30 265.56-7.92L265.56-7.92L265.56-7.92Q265.56-5.40 267.06-4.32L267.06-4.32L267.06-4.32Q268.56-3.24 270.72-3.24ZM298.02 0.72L298.02 0.72L298.02 0.72Q295.20 0.72 294.00-0.96L294.00-0.96L294.00-0.96Q292.80-2.64 292.80-5.88L292.80-5.88L292.80-42.72L297.72-42.72L297.72-5.52L297.72-5.52Q297.72-4.32 298.14-3.84L298.14-3.84L298.14-3.84Q298.56-3.36 299.10-3.36L299.10-3.36L299.10-3.36Q299.34-3.36 299.55-3.36L299.55-3.36L299.55-3.36Q299.76-3.36 300.18-3.48L300.18-3.48L300.84 0.24L300.84 0.24Q300.36 0.48 299.70 0.60L299.70 0.60L299.70 0.60Q299.04 0.72 298.02 0.72Z" fill="#ffffff"></path></g></g><style>text {
  font-size: 64px;
  font-family: Arial Black;
  dominant-baseline: central;
  text-anchor: middle;
}</style></svg>